# xmcd
#
# Track frame offsets:
#	150
#	3573
#	10857
#	21189
#	50174
#	65605
#	83119
#	103565
#	131986
#
# Disc length: 3056 seconds
# Revision: 0
# Processed by: cddbd v1.5.2PL0 Copyright (c) Steve Scherf et al.
# Submitted via: dBpowerAMP V12.0
#
DISCID=750bee09
DTITLE=Mary J. Blige - My Collection Of Love Songs
DYEAR=2005
DGENRE=
TTITLE0=Thank You Lord
TTITLE1=Ooh! [Live]
TTITLE2=Love @ 1st Sight [Live]
TTITLE3=My Life '05
TTITLE4=I'm Going Down [Live]
TTITLE5=Can't Hide From Luv [Live]
TTITLE6=Be Without You [Live]
TTITLE7=Can't Hide Love [Live]
TTITLE8=DATA
EXTD=
EXTT0=
EXTT1=
EXTT2=
EXTT3=
EXTT4=
EXTT5=
EXTT6=
EXTT7=
EXTT8=
PLAYORDER=
